<svg width="32" height="32" viewBox="0 0 32 32" fill="none" xmlns="http://www.w3.org/2000/svg">
<g clip-path="url(#clip0_138_25)">
<path d="M23.9118 2.92287C23.9119 2.92287 23.912 2.92287 23.9121 2.92281C25.0686 2.71906 26.7995 3.37719 28.2193 4.56038C29.4963 5.62457 31.1428 7.59788 31.7348 10.9554C32.1998 13.593 32.0451 17.2678 31.3208 20.7855C30.997 22.358 30.5897 23.7397 30.1428 24.7815C29.5484 26.1673 28.9181 26.875 28.159 27.0089C27.4026 27.1422 26.5726 26.7072 25.5469 25.6399C24.7684 24.8297 23.9151 23.691 23.0792 22.3468C21.2012 19.3265 19.7915 15.8871 19.3082 13.1465C18.6915 9.64857 19.5684 7.23344 20.4126 5.82332C20.8835 5.03675 21.4759 4.34531 22.1261 3.82369C22.7297 3.33944 23.3638 3.0195 23.9118 2.92287Z" fill="#FFA81C"/>
<path d="M28.1591 27.0088C28.9181 26.875 29.5484 26.1673 30.1429 24.7815C30.5897 23.7397 30.9971 22.358 31.3208 20.7855C32.0451 17.2678 32.1999 13.5931 31.7348 10.9554C31.1428 7.59786 29.4963 5.62455 28.2193 4.56036C26.7996 3.37717 25.0686 2.7191 23.9122 2.92279H23.9121L28.1591 27.0088Z" fill="#FF7403"/>
<path d="M25.1337 9.85279C25.6436 9.76285 26.1299 10.1033 26.2198 10.6132L29.1603 27.2895C29.2502 27.7994 28.9097 28.2856 28.3999 28.3756C27.89 28.4655 27.4037 28.125 27.3138 27.6151L24.3733 10.9389C24.2834 10.429 24.6239 9.94272 25.1337 9.85279Z" fill="#FFCF2C"/>
<path d="M28.3999 28.3757C28.9098 28.2858 29.2503 27.7996 29.1604 27.2896L26.2199 10.6133C26.1299 10.1035 25.6437 9.76297 25.1338 9.85291L28.3999 28.3757Z" fill="#FFA81C"/>
<path d="M9.2597 31.5408C9.25958 31.5407 9.25951 31.5407 9.25945 31.5407C8.24257 30.9534 7.3397 29.3367 7.01257 27.5177C6.71838 25.8816 6.72551 23.3116 8.4302 20.359C9.76939 18.0395 12.25 15.3239 15.066 13.0948C16.3248 12.0984 17.525 11.3017 18.5369 10.7909C19.883 10.1114 20.8209 9.97444 21.4884 10.3598C22.1535 10.7439 22.5097 11.6106 22.6094 13.0875C22.685 14.2085 22.6067 15.6294 22.3829 17.1964C21.8802 20.7173 20.7493 24.2581 19.3578 26.6681C17.5819 29.7441 15.3577 31.0306 13.8046 31.5681C12.9383 31.8679 12.04 32.0168 11.2067 31.9985C10.433 31.9816 9.74164 31.819 9.2597 31.5408Z" fill="#FFE645"/>
<path d="M22.6096 13.0876C22.51 11.6106 22.1538 10.7439 21.4886 10.3599C21.4853 10.3579 21.4818 10.3562 21.4785 10.3544L9.25 31.5347C9.25325 31.5366 9.25644 31.5388 9.25969 31.5407C9.25981 31.5407 9.25987 31.5408 9.25994 31.5408C9.74181 31.819 10.4333 31.9815 11.2069 31.9985C12.0403 32.0168 12.9386 31.868 13.8049 31.5682C15.358 31.0306 17.5821 29.7442 19.3581 26.6682C20.7495 24.2581 21.8803 20.7173 22.3832 17.1964C22.6069 15.6294 22.6852 14.2085 22.6096 13.0876Z" fill="#FFC12E"/>
<path d="M12.778 25.4467C12.3296 25.1878 12.176 24.6144 12.4348 24.166L20.9016 9.50114C21.1605 9.05276 21.7339 8.89907 22.1822 9.15801C22.6306 9.41688 22.7842 9.99026 22.5254 10.4386L14.0586 25.1035C13.7997 25.5519 13.2263 25.7055 12.778 25.4467Z" fill="#FFFF95"/>
<path d="M22.1824 9.15796C22.1791 9.15602 22.1756 9.15465 22.1722 9.15271L12.7686 25.4404C12.7719 25.4423 12.7749 25.4447 12.7782 25.4466C13.2266 25.7055 13.7999 25.5519 14.0588 25.1035L22.5256 10.4386C22.7845 9.99021 22.6309 9.41684 22.1824 9.15796Z" fill="#FFE645"/>
<path d="M6.3103 25.8454C6.31018 25.8454 6.31011 25.8454 6.30999 25.8454C5.13574 25.8452 3.54542 24.8965 2.35267 23.4848C1.27979 22.215 0.000976562 19.9858 0.000976562 16.5765C0.000976562 13.8982 0.791478 10.3061 2.11567 6.96764C2.70754 5.47532 3.34861 4.18526 3.96961 3.23701C4.79567 1.97544 5.5393 1.38794 6.31005 1.38794C7.07812 1.38794 7.81999 1.96044 8.64468 3.18969C9.27068 4.12269 9.91331 5.39232 10.503 6.86126C11.828 10.1618 12.6191 13.7937 12.6191 16.5765C12.6191 20.1284 11.3361 22.3546 10.2599 23.5967C9.65956 24.2895 8.95599 24.8675 8.22512 25.2684C7.5468 25.6405 6.86674 25.8454 6.3103 25.8454Z" fill="#FFC12E"/>
<path d="M8.64496 3.18957C7.82027 1.96032 7.07839 1.38782 6.31033 1.38782C6.30652 1.38782 6.3027 1.38807 6.29883 1.38807V25.8451C6.30258 25.8451 6.30645 25.8454 6.3102 25.8454H6.31052C6.86695 25.8454 7.54702 25.6404 8.22552 25.2683C8.95633 24.8675 9.6599 24.2894 10.2603 23.5966C11.3365 22.3545 12.6195 20.1284 12.6195 16.5765C12.6195 13.7937 11.8284 10.1617 10.5034 6.8612C9.91358 5.3922 9.27096 4.12257 8.64496 3.18957Z" fill="#FF9300"/>
<path d="M6.31006 18.8085C5.79231 18.8085 5.37256 18.3888 5.37256 17.871V0.937502C5.37256 0.419751 5.79231 0 6.31006 0C6.82781 0 7.24756 0.419751 7.24756 0.937502V17.871C7.24756 18.3888 6.82781 18.8085 6.31006 18.8085Z" fill="#FFE645"/>
<path d="M6.30984 0C6.30596 0 6.30221 0.000562501 6.29834 0.000562501V18.808C6.30221 18.808 6.30596 18.8085 6.30984 18.8085C6.82759 18.8085 7.24734 18.3888 7.24734 17.871V0.937502C7.24734 0.419751 6.82759 0 6.30984 0Z" fill="#FFC12E"/>
</g>
<defs>
<clipPath id="clip0_138_25">
<rect width="32" height="32" fill="white"/>
</clipPath>
</defs>
</svg>
